<svg width="32" height="32" viewBox="0 0 32 32" fill="none" xmlns="http://www.w3.org/2000/svg">
  <!-- Simplified shield for small size -->
  <path d="M16 2 C16 2, 26 5, 26 10 C26 16, 22 24, 16 30 C10 24, 6 16, 6 10 C6 5, 16 2, 16 2 Z"
        fill="#1e40af"
        stroke="#3b82f6"
        stroke-width="1.5"/>

  <!-- Book icon (simplified) -->
  <rect x="10" y="10" width="12" height="8" rx="1" fill="#f1f5f9" stroke="#64748b" stroke-width="1"/>
  <line x1="16" y1="10" x2="16" y2="18" stroke="#475569" stroke-width="1"/>

  <!-- Sword (simplified) -->
  <g transform="translate(14, 6)">
    <rect x="0" y="0" width="4" height="12" rx="0.5" fill="#cbd5e1"/>
    <rect x="-2" y="12" width="8" height="2" rx="0.5" fill="#fbbf24"/>
    <rect x="1" y="14" width="2" height="5" rx="0.5" fill="#78350f"/>
    <circle cx="2" cy="19.5" r="1.5" fill="#fbbf24"/>
  </g>

  <!-- Wisdom eye -->
  <circle cx="16" cy="22" r="2.5" fill="#fbbf24" opacity="0.9"/>
  <circle cx="16" cy="22" r="1.2" fill="#1e293b"/>
</svg>
